<svg xmlns="http://www.w3.org/2000/svg" class="recharts-surface" width="417" height="346" viewBox="0 0 417 346" version="1.1"><defs><clipPath id="recharts1-clip"><rect x="0" y="5" height="306" width="417"/></clipPath></defs><defs><linearGradient id="gradient" x1="0" y1="0" x2="0" y2="1"><stop offset="5%" stop-color="#ED4B9E" stop-opacity="0.34"/><stop offset="100%" stop-color="#ED4B9E" stop-opacity="0"/></linearGradient></defs><g class="recharts-layer recharts-cartesian-axis recharts-xAxis xAxis"><g class="recharts-cartesian-axis-ticks"><g class="recharts-layer recharts-cartesian-axis-tick"><text orientation="bottom" width="417" height="30" type="category" x="52.125" y="319" stroke="none" fill="#666" class="recharts-text recharts-cartesian-axis-tick-value" text-anchor="middle"><tspan x="52.125" dy="0.71em">09:00 PM</tspan></text></g><g class="recharts-layer recharts-cartesian-axis-tick"><text orientation="bottom" width="417" height="30" type="category" x="139" y="319" stroke="none" fill="#666" class="recharts-text recharts-cartesian-axis-tick-value" text-anchor="middle"><tspan x="139" dy="0.71em">02:00 AM</tspan></text></g><g class="recharts-layer recharts-cartesian-axis-tick"><text orientation="bottom" width="417" height="30" type="category" x="225.875" y="319" stroke="none" fill="#666" class="recharts-text recharts-cartesian-axis-tick-value" text-anchor="middle"><tspan x="225.875" dy="0.71em">07:00 AM</tspan></text></g><g class="recharts-layer recharts-cartesian-axis-tick"><text orientation="bottom" width="417" height="30" type="category" x="312.75" y="319" stroke="none" fill="#666" class="recharts-text recharts-cartesian-axis-tick-value" text-anchor="middle"><tspan x="312.75" dy="0.71em">12:00 PM</tspan></text></g><g class="recharts-layer recharts-cartesian-axis-tick"><text orientation="bottom" width="417" height="30" type="category" x="386.484375" y="319" stroke="none" fill="#666" class="recharts-text recharts-cartesian-axis-tick-value" text-anchor="middle"><tspan x="386.484375" dy="0.71em">05:16 PM</tspan></text></g></g></g><g class="recharts-layer recharts-area"><g class="recharts-layer"><path fill="url(#gradient)" stroke-width="2" fill-opacity="0.6" points="[object Object],[object Object],[object Object],[object Object],[object Object],[object Object],[object Object],[object Object],[object Object],[object Object],[object Object],[object Object],[object Object],[object Object],[object Object],[object Object],[object Object],[object Object],[object Object],[object Object],[object Object],[object Object],[object Object],[object Object],[object Object]" width="417" height="306" type="linear" stroke="none" class="recharts-curve recharts-area-area" d="M0,23.185833568253116L17.375,128.0436968968827L34.75,108.72329237657226L52.125,100.2721688189649L69.5,109.39244816138545L86.875,108.2667570966794L104.25,121.75392554733938L121.625,131.8283613111854L139,213.203287157215L156.375,197.61676486931862L173.75,201.80866428756383L191.125,185.84254075401134L208.5,181.32371665617177L225.875,203.69281367152885L243.25,260.0826796801819L260.625,274.5417998343125L278,268.72540784610567L295.375,289.44052004706714L312.75,284.4570902712404L330.125,268.72662618999965L347.5,215.98707558353343L364.875,235.529675713296L382.25,200.01038008469746L399.625,184.24662228095633L417,203.46453846153815L417,311L399.625,311L382.25,311L364.875,311L347.5,311L330.125,311L312.75,311L295.375,311L278,311L260.625,311L243.25,311L225.875,311L208.5,311L191.125,311L173.75,311L156.375,311L139,311L121.625,311L104.25,311L86.875,311L69.5,311L52.125,311L34.75,311L17.375,311L0,311Z"/><path type="linear" stroke="#ED4B9E " fill="none" stroke-width="2" fill-opacity="0.6" points="[object Object],[object Object],[object Object],[object Object],[object Object],[object Object],[object Object],[object Object],[object Object],[object Object],[object Object],[object Object],[object Object],[object Object],[object Object],[object Object],[object Object],[object Object],[object Object],[object Object],[object Object],[object Object],[object Object],[object Object],[object Object]" width="417" height="306" class="recharts-curve recharts-area-curve" d="M0,23.185833568253116L17.375,128.0436968968827L34.75,108.72329237657226L52.125,100.2721688189649L69.5,109.39244816138545L86.875,108.2667570966794L104.25,121.75392554733938L121.625,131.8283613111854L139,213.203287157215L156.375,197.61676486931862L173.75,201.80866428756383L191.125,185.84254075401134L208.5,181.32371665617177L225.875,203.69281367152885L243.25,260.0826796801819L260.625,274.5417998343125L278,268.72540784610567L295.375,289.44052004706714L312.75,284.4570902712404L330.125,268.72662618999965L347.5,215.98707558353343L364.875,235.529675713296L382.25,200.01038008469746L399.625,184.24662228095633L417,203.46453846153815"/></g></g></svg>