<?xml version="1.0" encoding="utf-8"?>
<!-- Generator: Adobe Illustrator 26.0.3, SVG Export Plug-In . SVG Version: 6.00 Build 0)  -->
<svg version="1.1" id="Livello_1" xmlns="http://www.w3.org/2000/svg" xmlns:xlink="http://www.w3.org/1999/xlink" x="0px" y="0px"
	 viewBox="0 0 20 199" style="enable-background:new 0 0 20 199;" xml:space="preserve">
<path d="M2,100.4C1.9,100.4,1.9,100.3,2,100.4c-0.1,0-0.1-0.1-0.1-0.1v-1.4c0,0,0-0.1,0-0.1c0,0,0.1,0,0.1,0h0.6
	c0.2,0,0.4,0,0.5,0.1c0.1,0.1,0.2,0.2,0.2,0.4c0,0.2-0.1,0.3-0.2,0.4c-0.1,0.1-0.3,0.1-0.5,0.1H2.4v0.4c0,0,0,0.1,0,0.1
	c0,0-0.1,0-0.1,0C2.2,100.4,2,100.4,2,100.4z M2.5,99.5c0.1,0,0.1,0,0.2-0.1c0,0,0.1-0.1,0.1-0.2c0-0.1,0-0.1-0.1-0.2
	c0,0-0.1-0.1-0.2-0.1H2.4v0.4C2.4,99.5,2.5,99.5,2.5,99.5z M3.8,100.4c-0.2,0-0.3,0-0.4-0.1c-0.1-0.1-0.1-0.2-0.1-0.4
	c0-0.1,0-0.3,0.1-0.4c0.1-0.1,0.1-0.2,0.3-0.2c0.1-0.1,0.2-0.1,0.4-0.1c0.1,0,0.2,0,0.3,0c0.1,0,0.2,0.1,0.3,0.1v1c0,0,0,0.1,0,0.1
	c0,0,0,0-0.1,0H4.3c0,0,0,0,0,0c0,0,0,0,0,0l0-0.1c0,0-0.1,0.1-0.2,0.1C4,100.4,3.9,100.4,3.8,100.4z M4,100.1c0.1,0,0.1,0,0.1,0
	c0,0,0.1-0.1,0.1-0.1v-0.4c0,0-0.1,0-0.1,0c-0.1,0-0.2,0-0.2,0.1c0,0.1-0.1,0.1-0.1,0.3C3.8,100,3.9,100.1,4,100.1z M5,100.4
	C4.9,100.4,4.9,100.3,5,100.4c-0.1,0-0.1-0.1-0.1-0.1v-1c0,0,0,0,0-0.1c0,0,0,0,0.1,0h0.2c0,0,0,0,0,0c0,0,0,0,0,0l0,0.1
	c0,0,0.1-0.1,0.2-0.1c0.1,0,0.2,0,0.2,0c0.1,0,0.2,0,0.3,0.1c0.1,0.1,0.1,0.2,0.1,0.3v0.6c0,0,0,0.1,0,0.1c0,0,0,0-0.1,0H5.7
	c0,0-0.1,0-0.1,0c0,0,0,0,0-0.1v-0.6c0,0,0-0.1,0-0.1c0,0-0.1,0-0.1,0c0,0-0.1,0-0.1,0c0,0,0,0.1,0,0.1v0.6c0,0,0,0.1,0,0.1
	c0,0,0,0-0.1,0C5.2,100.4,5,100.4,5,100.4z M7,100.4c-0.2,0-0.4-0.1-0.5-0.2c-0.1-0.1-0.2-0.3-0.2-0.5c0-0.1,0-0.2,0.1-0.3
	c0.1-0.1,0.1-0.2,0.2-0.2c0.1-0.1,0.2-0.1,0.4-0.1c0.1,0,0.2,0,0.3,0c0.1,0,0.1,0.1,0.2,0.1c0,0,0,0,0,0c0,0,0,0,0,0.1l-0.1,0.2
	c0,0,0,0,0,0c0,0,0,0,0,0c0,0-0.1,0-0.1-0.1c0,0-0.1,0-0.1,0c-0.1,0-0.1,0-0.2,0.1c0,0.1-0.1,0.1-0.1,0.2c0,0.1,0,0.2,0.1,0.2
	c0,0,0.1,0.1,0.2,0.1c0.1,0,0.1,0,0.1,0c0,0,0.1,0,0.1-0.1c0,0,0,0,0,0c0,0,0,0,0,0l0.1,0.2c0,0,0,0,0,0c0,0,0,0,0,0
	c-0.1,0-0.1,0.1-0.2,0.1C7.2,100.4,7.1,100.4,7,100.4z M8.1,100.4c-0.2,0-0.3,0-0.4-0.1c-0.1-0.1-0.1-0.2-0.1-0.4
	c0-0.1,0-0.3,0.1-0.4c0.1-0.1,0.1-0.2,0.3-0.2c0.1-0.1,0.2-0.1,0.4-0.1c0.1,0,0.2,0,0.3,0c0.1,0,0.2,0.1,0.3,0.1v1c0,0,0,0.1,0,0.1
	c0,0,0,0-0.1,0H8.6c0,0,0,0,0,0c0,0,0,0,0,0l0-0.1c0,0-0.1,0.1-0.2,0.1C8.3,100.4,8.2,100.4,8.1,100.4z M8.3,100.1
	c0.1,0,0.1,0,0.1,0c0,0,0.1-0.1,0.1-0.1v-0.4c0,0-0.1,0-0.1,0c-0.1,0-0.2,0-0.2,0.1c0,0.1-0.1,0.1-0.1,0.3
	C8.1,100,8.1,100.1,8.3,100.1z M10.4,100.3C10.4,100.3,10.5,100.3,10.4,100.3C10.5,100.3,10.4,100.3,10.4,100.3
	C10.4,100.4,10.4,100.4,10.4,100.3l-0.4,0.1c0,0,0,0-0.1,0c0,0,0,0,0,0l-0.3-0.4v0.4c0,0,0,0.1,0,0.1c0,0-0.1,0-0.1,0H9.3
	c0,0-0.1,0-0.1,0c0,0,0,0,0-0.1v-1.4c0,0,0-0.1,0-0.1c0,0,0.1,0,0.1,0h0.2c0,0,0.1,0,0.1,0c0,0,0,0,0,0.1v0.8l0.3-0.4c0,0,0,0,0,0
	c0,0,0,0,0.1,0h0.4c0,0,0,0,0,0c0,0,0,0,0,0c0,0,0,0,0,0L10,99.8C10,99.8,10.4,100.3,10.4,100.3z M11.2,100.4c-0.1,0-0.3,0-0.4-0.1
	c-0.1,0-0.2-0.1-0.2-0.2c-0.1-0.1-0.1-0.2-0.1-0.3c0-0.2,0.1-0.4,0.2-0.5c0.1-0.1,0.3-0.2,0.5-0.2c0.2,0,0.4,0.1,0.5,0.2
	c0.1,0.1,0.2,0.2,0.2,0.4c0,0.1,0,0.1-0.1,0.1H11c0,0.1,0,0.1,0.1,0.2c0.1,0,0.1,0.1,0.2,0.1c0.1,0,0.1,0,0.2,0c0,0,0.1,0,0.1-0.1
	c0,0,0,0,0,0c0,0,0,0,0,0l0.1,0.2c0,0,0,0,0,0c0,0,0,0,0,0c-0.1,0-0.1,0.1-0.2,0.1C11.4,100.4,11.3,100.4,11.2,100.4z M11.4,99.6
	c0-0.1,0-0.1-0.1-0.1s-0.1-0.1-0.2-0.1s-0.1,0-0.2,0.1c0,0-0.1,0.1-0.1,0.1H11.4z M12.7,100.4c-0.1,0-0.3,0-0.4,0
	c-0.1,0-0.2-0.1-0.3-0.1c0,0,0,0,0-0.1c0,0,0,0,0,0l0.1-0.2c0,0,0,0,0,0c0,0,0,0,0,0c0.1,0,0.1,0.1,0.2,0.1c0.1,0,0.1,0,0.2,0
	c0.1,0,0.1,0,0.2,0c0,0,0.1-0.1,0.1-0.1c0,0,0-0.1-0.1-0.1c0,0-0.1-0.1-0.2-0.1c-0.2-0.1-0.3-0.1-0.4-0.2c-0.1-0.1-0.1-0.2-0.1-0.3
	c0-0.2,0.1-0.3,0.2-0.4c0.1-0.1,0.3-0.1,0.5-0.1c0.1,0,0.2,0,0.3,0c0.1,0,0.2,0.1,0.2,0.1c0,0,0,0,0,0.1c0,0,0,0,0,0l-0.1,0.2
	c0,0,0,0,0,0c0,0,0,0,0,0C13,99.1,12.8,99,12.7,99c-0.1,0-0.1,0-0.2,0c0,0-0.1,0.1-0.1,0.1c0,0,0,0.1,0,0.1c0,0,0,0,0.1,0.1
	c0,0,0.1,0,0.2,0.1l0,0c0.1,0,0.2,0.1,0.3,0.1c0.1,0,0.1,0.1,0.2,0.2c0,0.1,0.1,0.1,0.1,0.2c0,0.1-0.1,0.3-0.2,0.3
	C13,100.3,12.9,100.4,12.7,100.4z M13.8,100.4C13.8,100.4,13.8,100.4,13.8,100.4C13.7,100.3,13.7,100.3,13.8,100.4l-0.4-1.1
	c0,0,0,0,0,0c0,0,0,0,0,0h0.3c0,0,0,0,0,0c0,0,0,0,0,0l0.1,0.5l0.2-0.4c0,0,0,0,0,0c0,0,0,0,0,0h0.2c0,0,0,0,0,0c0,0,0,0,0,0
	l0.2,0.4l0.1-0.5c0,0,0,0,0,0c0,0,0,0,0,0h0.3c0,0,0,0,0,0c0,0,0,0,0,0l-0.3,1c0,0,0,0,0,0c0,0,0,0-0.1,0h-0.2c0,0,0,0-0.1,0
	c0,0,0,0,0,0l-0.2-0.4l-0.2,0.4c0,0,0,0,0,0c0,0,0,0-0.1,0C14,100.4,13.8,100.4,13.8,100.4z M15.8,100.4c-0.2,0-0.3,0-0.4-0.1
	c-0.1-0.1-0.1-0.2-0.1-0.4c0-0.1,0-0.3,0.1-0.4c0.1-0.1,0.1-0.2,0.3-0.2c0.1-0.1,0.2-0.1,0.4-0.1c0.1,0,0.2,0,0.3,0
	c0.1,0,0.2,0.1,0.3,0.1v1c0,0,0,0.1,0,0.1c0,0,0,0-0.1,0h-0.2c0,0,0,0,0,0c0,0,0,0,0,0l0-0.1c0,0-0.1,0.1-0.2,0.1
	C15.9,100.4,15.8,100.4,15.8,100.4z M15.9,100.1c0.1,0,0.1,0,0.1,0c0,0,0.1-0.1,0.1-0.1v-0.4c0,0-0.1,0-0.1,0c-0.1,0-0.2,0-0.2,0.1
	c0,0.1-0.1,0.1-0.1,0.3C15.7,100,15.8,100.1,15.9,100.1z M16.9,100.8C16.9,100.8,16.8,100.8,16.9,100.8c-0.1,0-0.1-0.1-0.1-0.1v-1.4
	c0.1-0.1,0.2-0.1,0.3-0.1c0.1,0,0.2-0.1,0.3-0.1c0.5,0,0.7,0.2,0.7,0.6c0,0.2-0.1,0.3-0.2,0.4c-0.1,0.1-0.2,0.2-0.4,0.2
	c-0.1,0-0.1,0-0.2,0c0,0-0.1,0-0.1-0.1v0.4c0,0,0,0.1,0,0.1s-0.1,0-0.1,0C17.1,100.8,16.9,100.8,16.9,100.8z M17.4,100.1
	c0.1,0,0.1,0,0.2-0.1c0-0.1,0.1-0.1,0.1-0.2c0-0.1,0-0.2-0.1-0.2c0,0-0.1-0.1-0.2-0.1c-0.1,0-0.1,0-0.1,0v0.4c0,0.1,0,0.1,0,0.1
	C17.3,100.1,17.4,100.1,17.4,100.1z"/>
</svg>
