<svg id="Livello_1" data-name="Livello 1" xmlns="http://www.w3.org/2000/svg" viewBox="0 0 19.32 20.06"><defs><style>.cls-1,.cls-4{fill:#633001;}.cls-1{fill-rule:evenodd;}.cls-2{fill:#d1884f;}.cls-3{fill:#fedc90;}</style></defs><path class="cls-1" d="M10,109.51a11.58,11.58,0,0,1-7-2,6.34,6.34,0,0,1-2.6-5.18A5.91,5.91,0,0,1,2.22,98,8.37,8.37,0,0,1,4.5,96.43c-.13-.42-.31-1-.46-1.54a9.72,9.72,0,0,1-.41-2.3,3.52,3.52,0,0,1,.63-2.16,2.54,2.54,0,0,1,2.1-1,2.41,2.41,0,0,1,1.72.69A3.8,3.8,0,0,1,9,91.68a12.27,12.27,0,0,1,.53,3.56h.84a12.62,12.62,0,0,1,.53-3.56,3.8,3.8,0,0,1,.93-1.54,2.43,2.43,0,0,1,1.73-.69,2.51,2.51,0,0,1,2.09,1,3.52,3.52,0,0,1,.63,2.16,10.21,10.21,0,0,1-.4,2.3c-.16.57-.33,1.12-.47,1.54A8.55,8.55,0,0,1,17.71,98a5.94,5.94,0,0,1,1.91,4.39,6.34,6.34,0,0,1-2.6,5.18,11.54,11.54,0,0,1-7,2Z" transform="translate(-0.3 -89.45)"/><path class="cls-2" d="M6.36,90.19c-1.29,0-1.89,1-1.89,2.29a16.77,16.77,0,0,0,1,4,.37.37,0,0,1-.22.46c-1,.41-4.08,1.9-4.08,5.31,0,3.6,3.09,6.31,8.81,6.32h0c5.71,0,8.81-2.72,8.81-6.32,0-3.41-3.05-4.9-4.08-5.31a.36.36,0,0,1-.22-.46,17.27,17.27,0,0,0,1-4c0-1.33-.59-2.29-1.88-2.29-1.86,0-2.32,2.62-2.35,5.44a.34.34,0,0,1-.34.34H9.05a.34.34,0,0,1-.34-.34C8.67,92.81,8.21,90.19,6.36,90.19Z" transform="translate(-0.3 -89.45)"/><path class="cls-3" d="M10,107.4c-4.2,0-8.81-2.24-8.82-5.15h0c0,3.6,3.1,6.32,8.82,6.32s8.82-2.72,8.82-6.32h0C18.78,105.16,14.16,107.4,10,107.4Z" transform="translate(-0.3 -89.45)"/><path class="cls-4" d="M7.64,101.36c0,1-.47,1.49-1,1.49s-1-.51-1-1.49.46-1.49,1-1.49S7.64,100.38,7.64,101.36Zm6.73,0c0,1-.46,1.49-1,1.49s-1-.51-1-1.49.46-1.49,1-1.49S14.37,100.38,14.37,101.36Z" transform="translate(-0.3 -89.45)"/></svg>