<svg id="Livello_1" data-name="Livello 1" xmlns="http://www.w3.org/2000/svg" viewBox="0 0 16.27 2.16"><path d="M3.86,100.34a.13.13,0,0,1-.1,0,.12.12,0,0,1,0-.09v-1.4a.12.12,0,0,1,0-.09.13.13,0,0,1,.1,0h.59a.73.73,0,0,1,.49.14.54.54,0,0,1,.16.43.54.54,0,0,1-.16.42.73.73,0,0,1-.49.14H4.22v.39a.12.12,0,0,1,0,.09.13.13,0,0,1-.1,0Zm.55-.86a.2.2,0,0,0,.15-.06.17.17,0,0,0,.05-.15.22.22,0,0,0-.05-.17.25.25,0,0,0-.15,0H4.22v.43Zm1.26.89a.49.49,0,0,1-.36-.14.6.6,0,0,1-.14-.41.69.69,0,0,1,.09-.36.58.58,0,0,1,.26-.23.87.87,0,0,1,.4-.08,1,1,0,0,1,.32,0,.85.85,0,0,1,.26.11v1a.08.08,0,0,1,0,.06.1.1,0,0,1-.07,0H6.13l0,0,0-.07a.42.42,0,0,1-.17.11A.75.75,0,0,1,5.67,100.37Zm.18-.32A.25.25,0,0,0,6,100a.17.17,0,0,0,0-.13v-.38l-.12,0a.25.25,0,0,0-.2.09.37.37,0,0,0-.08.25C5.65,100,5.72,100.05,5.85,100.05Zm1,.29a.15.15,0,0,1-.1,0,.2.2,0,0,1,0-.09v-1s0-.05,0-.06a.1.1,0,0,1,.07,0h.29s0,0,0,0v.07a.39.39,0,0,1,.18-.1.61.61,0,0,1,.24,0,.43.43,0,0,1,.32.11.41.41,0,0,1,.12.32v.64a.12.12,0,0,1,0,.09.13.13,0,0,1-.1,0H7.61a.13.13,0,0,1-.1,0,.12.12,0,0,1,0-.09v-.61a.13.13,0,0,0,0-.1.15.15,0,0,0-.1,0,.21.21,0,0,0-.12,0,.18.18,0,0,0,0,.11v.6a.12.12,0,0,1,0,.09s0,0-.09,0Zm2,0a.79.79,0,0,1-.52-.15.59.59,0,0,1-.19-.46.6.6,0,0,1,.33-.54.92.92,0,0,1,.38-.07,1.09,1.09,0,0,1,.28,0,.67.67,0,0,1,.21.09.08.08,0,0,1,0,0,.06.06,0,0,1,0,.05l-.1.17s0,0,0,0l0,0L9,99.49l-.13,0a.26.26,0,0,0-.2.08.35.35,0,0,0,0,.42.29.29,0,0,0,.21.08A.35.35,0,0,0,9,100a.34.34,0,0,0,.12-.06l0,0s0,0,0,0l.11.18a.08.08,0,0,1,0,0s0,0,0,0a.62.62,0,0,1-.22.1A1.14,1.14,0,0,1,8.82,100.37Zm1.14,0a.49.49,0,0,1-.36-.14.6.6,0,0,1-.14-.41.69.69,0,0,1,.09-.36.61.61,0,0,1,.27-.23.8.8,0,0,1,.39-.08,1,1,0,0,1,.32,0,.76.76,0,0,1,.26.11v1s0,0,0,.06a.08.08,0,0,1-.06,0h-.29s0,0,0,0l0-.07a.62.62,0,0,1-.17.11A.88.88,0,0,1,10,100.37Zm.18-.32a.25.25,0,0,0,.15,0,.17.17,0,0,0,.05-.13v-.38l-.11,0a.26.26,0,0,0-.21.09.37.37,0,0,0-.07.25C10,100,10,100.05,10.14,100.05Zm2.16.2a.05.05,0,0,1,0,0s0,0,0,0,0,0,0,0h-.43l0,0-.33-.45v.36a.2.2,0,0,1,0,.09.15.15,0,0,1-.1,0h-.24a.15.15,0,0,1-.1,0,.2.2,0,0,1,0-.09v-1.4a.11.11,0,0,1,.12-.12h.24a.15.15,0,0,1,.1,0,.2.2,0,0,1,0,.09v.81l.32-.41s0,0,0,0h.43l0,0s0,0,0,0a.05.05,0,0,1,0,0l-.41.47Zm.78.12a1,1,0,0,1-.36-.06.72.72,0,0,1-.25-.21.58.58,0,0,1-.09-.33.57.57,0,0,1,.18-.46.67.67,0,0,1,.49-.16.7.7,0,0,1,.49.15.58.58,0,0,1,.16.44c0,.08,0,.12-.1.12h-.76a.19.19,0,0,0,.08.16.39.39,0,0,0,.24,0h.16a.75.75,0,0,0,.13-.06h0s0,0,0,0l.08.15a.08.08,0,0,1,0,0,.05.05,0,0,1,0,0,.73.73,0,0,1-.22.09A1.23,1.23,0,0,1,13.08,100.37Zm.19-.75a.2.2,0,0,0,0-.14.25.25,0,0,0-.16,0,.23.23,0,0,0-.16,0,.18.18,0,0,0-.06.14Zm1.26.75a1.61,1.61,0,0,1-.39,0,1,1,0,0,1-.29-.12s0,0,0,0a.05.05,0,0,1,0,0l.11-.19,0,0,0,0a1,1,0,0,0,.21.08.83.83,0,0,0,.22,0,.4.4,0,0,0,.17,0,.15.15,0,0,0,0-.23,1.72,1.72,0,0,0-.22-.1,1.48,1.48,0,0,1-.38-.2.41.41,0,0,1-.13-.32.4.4,0,0,1,.17-.36.75.75,0,0,1,.45-.13,1.59,1.59,0,0,1,.34,0,.66.66,0,0,1,.24.11s0,0,0,0,0,0,0,0l-.12.19,0,0,0,0a.58.58,0,0,0-.33-.09.35.35,0,0,0-.16,0,.13.13,0,0,0-.06.12.11.11,0,0,0,0,.08l.08.06.15.06.05,0a1.45,1.45,0,0,1,.28.14.36.36,0,0,1,.15.15.41.41,0,0,1,.06.23.45.45,0,0,1-.16.35A.8.8,0,0,1,14.53,100.37Zm1.14,0a.11.11,0,0,1-.06,0s0,0,0,0l-.31-1v0s0,0,.05,0h.36a.05.05,0,0,1,0,0l.13.54.16-.44s0,0,0,0l0,0h.16l0,0s0,0,0,0l.16.44.13-.54s0,0,0,0H17s.05,0,.05,0v0l-.31,1s0,0,0,0a.08.08,0,0,1-.06,0h-.23l-.05,0s0,0,0,0l-.16-.44-.16.44s0,0,0,0l0,0Zm2,0a.49.49,0,0,1-.36-.14.6.6,0,0,1-.14-.41.69.69,0,0,1,.1-.36.58.58,0,0,1,.26-.23.8.8,0,0,1,.39-.08,1,1,0,0,1,.32,0,.76.76,0,0,1,.26.11v1s0,0,0,.06l-.07,0h-.29s0,0,0,0l0-.07a.62.62,0,0,1-.17.11A.83.83,0,0,1,17.62,100.37Zm.18-.32a.23.23,0,0,0,.15,0,.14.14,0,0,0,.05-.13v-.38l-.11,0a.26.26,0,0,0-.21.09.37.37,0,0,0-.07.25C17.61,100,17.67,100.05,17.8,100.05Zm1,.77a.13.13,0,0,1-.1,0,.12.12,0,0,1,0-.09V99.32a.85.85,0,0,1,.27-.12,1,1,0,0,1,.34,0c.49,0,.73.2.73.61a.64.64,0,0,1-.15.45.58.58,0,0,1-.44.16.39.39,0,0,1-.15,0,.33.33,0,0,1-.12,0v.4a.12.12,0,0,1,0,.09.13.13,0,0,1-.1,0Zm.52-.77a.16.16,0,0,0,.15-.08.33.33,0,0,0,.05-.21.32.32,0,0,0-.06-.22.25.25,0,0,0-.19-.06.27.27,0,0,0-.13,0v.38a.15.15,0,0,0,.05.12A.17.17,0,0,0,19.31,100.05Z" transform="translate(-3.73 -98.66)"/></svg>