<svg id="Livello_1" data-name="Livello 1" xmlns="http://www.w3.org/2000/svg" viewBox="0 0 130.14835 17.26439">
  <path d="M30.85252,106.19427a1.09476,1.09476,0,0,1-.78913-.23094,1.05984,1.05984,0,0,1-.21171-.73143V94.0881a.86139.86139,0,0,1,1.00084-.98173H35.568a5.8295,5.8295,0,0,1,3.9649,1.13561,5.12613,5.12613,0,0,1,0,6.7556A5.85334,5.85334,0,0,1,35.568,102.114H33.73951v3.11794a1.00022,1.00022,0,0,1-.23094.73143,1.09478,1.09478,0,0,1-.78913.23094Zm4.40756-6.87113a1.64084,1.64084,0,0,0,1.21255-.42342,1.68005,1.68005,0,0,0,.44266-1.27026,1.708,1.708,0,0,0-.44266-1.28961,1.64084,1.64084,0,0,0-1.21255-.42342H33.73951v3.40671Zm10.08837,7.15978a3.82244,3.82244,0,0,1-2.90623-1.15472,4.68776,4.68776,0,0,1-1.07778-3.2913,5.37186,5.37186,0,0,1,.7313-2.82929,4.94828,4.94828,0,0,1,2.098-1.86692,7.00743,7.00743,0,0,1,3.13717-.6736,9.19007,9.19007,0,0,1,2.57911.32725,7.56125,7.56125,0,0,1,2.07862.90454v7.69873a.63254.63254,0,0,1-.13477.48113.87681.87681,0,0,1-.53882.11553H49.35182a.74519.74519,0,0,1-.32712-.05783.57958.57958,0,0,1-.19247-.23094l-.2503-.5773a3.25557,3.25557,0,0,1-1.3472.86608A5.39913,5.39913,0,0,1,45.34845,106.48292Zm1.44362-2.61758a1.73879,1.73879,0,0,0,1.174-.36559,1.29912,1.29912,0,0,0,.42342-1.03944v-3.0024a2.157,2.157,0,0,0-.92378-.17324,2.05544,2.05544,0,0,0-1.636.71207,3.02935,3.02935,0,0,0-.59666,2.00169Q45.233,103.86541,46.79207,103.86534Zm7.87509,2.32893a1.09435,1.09435,0,0,1-.78913-.23094,1.00022,1.00022,0,0,1-.23094-.73143V97.5524a.66888.66888,0,0,1,.11541-.46189.77952.77952,0,0,1,.53895-.13477h1.98246a.62962.62962,0,0,1,.34635.07706.25993.25993,0,0,1,.154.231l.09617.57742a3.70623,3.70623,0,0,1,1.405-.84684,5.62534,5.62534,0,0,1,1.96321-.32724A3.57735,3.57735,0,0,1,62.77,97.5524a3.29332,3.29332,0,0,1,.96237,2.57911v5.10039a1.00022,1.00022,0,0,1-.23094.73143,1.02231,1.02231,0,0,1-.7699.23094H60.86457a1.17069,1.17069,0,0,1-.80836-.23094,1.00018,1.00018,0,0,1-.23095-.73143v-4.85021a1.14045,1.14045,0,0,0-.25018-.82761,1.07892,1.07892,0,0,0-.78913-.25017,1.33978,1.33978,0,0,0-.9239.30788,1.107,1.107,0,0,0-.32712.847v4.77315a1.00074,1.00074,0,0,1-.23094.73143,1.02231,1.02231,0,0,1-.7699.23094Zm15.86836.28865a6.21279,6.21279,0,0,1-4.15738-1.251,4.52239,4.52239,0,0,1-1.46273-3.63766,4.89358,4.89358,0,0,1,.6736-2.579A4.49335,4.49335,0,0,1,67.533,97.283a6.99129,6.99129,0,0,1,3.041-.61589,8.506,8.506,0,0,1,2.23263.25018,4.93474,4.93474,0,0,1,1.636.7699.40011.40011,0,0,1,.21171.34648.84393.84393,0,0,1-.154.40418l-.78914,1.36643q-.1347.26961-.32712.26954a.84286.84286,0,0,1-.36571-.154,4.59519,4.59519,0,0,0-.98161-.48113,3.44252,3.44252,0,0,0-1.11625-.154,2.07313,2.07313,0,0,0-1.559.61589,2.378,2.378,0,0,0-.57743,1.69368,2.29048,2.29048,0,0,0,.59666,1.69368,2.2534,2.2534,0,0,0,1.636.57742,3.3961,3.3961,0,0,0,1.11638-.17324,5.59814,5.59814,0,0,0,1.02008-.48112.955.955,0,0,1,.38494-.154q.17311,0,.30789.26954l.86608,1.482a.74517.74517,0,0,1,.0963.30788.419.419,0,0,1-.23095.32725,6.0825,6.0825,0,0,1-1.77074.7699,8.34934,8.34934,0,0,1-2.2711.26941Zm9.15273,0A3.82206,3.82206,0,0,1,76.782,105.3282a4.68776,4.68776,0,0,1-1.07791-3.2913,5.37081,5.37081,0,0,1,.73143-2.82929,4.94723,4.94723,0,0,1,2.09786-1.86692,7.008,7.008,0,0,1,3.1373-.6736,9.18983,9.18983,0,0,1,2.579.32725,7.5622,7.5622,0,0,1,2.07875.90454v7.69873a.63308.63308,0,0,1-.13477.48113.877.877,0,0,1-.53895.11553H83.69163a.74583.74583,0,0,1-.32725-.05783.58055.58055,0,0,1-.19247-.23094l-.25018-.5773a3.256,3.256,0,0,1-1.34732.86608A5.39889,5.39889,0,0,1,79.68825,106.48292Zm1.4435-2.61758a1.73891,1.73891,0,0,0,1.17408-.36559,1.29912,1.29912,0,0,0,.42342-1.03944v-3.0024a2.15757,2.15757,0,0,0-.9239-.17324,2.0558,2.0558,0,0,0-1.636.71207,3.03,3.03,0,0,0-.59666,2.00169Q79.57272,103.86541,81.13175,103.86534Zm17.28674,1.59751a.51279.51279,0,0,1,.13476.34647.39132.39132,0,0,1-.11553.28865.46514.46514,0,0,1-.30789.0963H95.14654a1.581,1.581,0,0,1-.40419-.03847.87951.87951,0,0,1-.25018-.21171l-2.61758-3.56071v2.84852a1.0002,1.0002,0,0,1-.23095.73143,1.09474,1.09474,0,0,1-.78913.23094H88.98759a1.09476,1.09476,0,0,1-.78913-.23094,1.05982,1.05982,0,0,1-.21171-.73143V94.08811a.86139.86139,0,0,1,1.00084-.98174h1.86692a1.03859,1.03859,0,0,1,.78913.25031.99967.99967,0,0,1,.23095.7313v6.44771l2.54064-3.31041a.6322.6322,0,0,1,.25018-.21171,1.07563,1.07563,0,0,1,.40418-.05783h2.9833a.3545.3545,0,0,1,.28865.11554.33164.33164,0,0,1,.11553.26941.51253.51253,0,0,1-.13477.34648l-3.29117,3.77243Zm6.24949,1.02007a7.33156,7.33156,0,0,1-2.887-.53883,4.47992,4.47992,0,0,1-1.98245-1.61673,4.587,4.587,0,0,1-.7313-2.63682,4.85107,4.85107,0,0,1,1.38579-3.734,5.63725,5.63725,0,0,1,3.984-1.28949,5.31515,5.31515,0,0,1,3.84937,1.27026,4.554,4.554,0,0,1,1.32808,3.48365q0,.96244-.84684.96238h-6.04352a1.46894,1.46894,0,0,0,.61589,1.27025,3.3435,3.3435,0,0,0,1.90539.44266,5.32773,5.32773,0,0,0,1.30885-.13465,5.46065,5.46065,0,0,0,1.07779-.44265,1.05635,1.05635,0,0,1,.30789-.0963q.17329,0,.28877.23094l.65437,1.23179a.73871.73871,0,0,1,.0963.28878.41875.41875,0,0,1-.23107.32711,5.45047,5.45047,0,0,1-1.78985.75067A10.23767,10.23767,0,0,1,104.668,106.48292Zm1.48209-6.00493a1.49527,1.49527,0,0,0-.42342-1.13561,1.77692,1.77692,0,0,0-1.27038-.40419,1.7953,1.7953,0,0,0-1.28949.42342,1.43588,1.43588,0,0,0-.44266,1.11638Zm10.06126,6.00493a13.81537,13.81537,0,0,1-3.06023-.32712,6.88531,6.88531,0,0,1-2.32893-.96237q-.3271-.21171-.32712-.44266a.59685.59685,0,0,1,.11541-.32724l.94314-1.5012q.154-.231.30789-.231a.8115.8115,0,0,1,.32724.13465,7.08678,7.08678,0,0,0,1.61674.65436,6.68914,6.68914,0,0,0,1.79.25031,2.53734,2.53734,0,0,0,1.328-.26954.93715.93715,0,0,0,.44265-.86608,1.03555,1.03555,0,0,0-.48112-.90454,9.12168,9.12168,0,0,0-1.75151-.8276,10.73806,10.73806,0,0,1-3.041-1.6361,3.12473,3.12473,0,0,1-1.07779-2.502,3.379,3.379,0,0,1,1.36655-2.90623,6.01984,6.01984,0,0,1,3.63766-1.00085,10.89429,10.89429,0,0,1,2.69452.28865,5.2917,5.2917,0,0,1,1.92462.84684q.3273.25031.32724.462a.57555.57555,0,0,1-.11553.30788l-.943,1.50133q-.17331.23082-.308.23094a.812.812,0,0,1-.32713-.13477,4.73711,4.73711,0,0,0-2.656-.7313,2.46212,2.46212,0,0,0-1.27038.26941.95588.95588,0,0,0-.44266.88531,1.02774,1.02774,0,0,0,.231.693,2.18975,2.18975,0,0,0,.6159.48112q.40431.19242,1.23178.50049l.36571.13464a13.04094,13.04094,0,0,1,2.23264,1.07791,3.435,3.435,0,0,1,1.251,1.251,3.64535,3.64535,0,0,1,.42342,1.84768,3.30548,3.30548,0,0,1-1.28949,2.733A5.89568,5.89568,0,0,1,116.21133,106.48292Zm9.132-.28865a.84019.84019,0,0,1-.44266-.0963.61977.61977,0,0,1-.23106-.385l-2.48281-8.31463a.61181.61181,0,0,1-.03847-.17311q0-.26941.385-.26954h2.54026a.56814.56814,0,0,1,.366.09617.39564.39564,0,0,1,.15362.26954l1.03919,4.36909,1.309-3.52225a.80819.80819,0,0,1,.19235-.30788.60772.60772,0,0,1,.38594-.09618h1.21155a.52053.52053,0,0,1,.366.09618.677.677,0,0,1,.21233.30788l1.289,3.52225,1.05917-4.36909a.52068.52068,0,0,1,.15362-.26941.48521.48521,0,0,1,.346-.09617h2.5605c.256,0,.38469.0898.38469.26941a.59272.59272,0,0,1-.03873.17312l-2.5018,8.31463a.62038.62038,0,0,1-.23106.38494.73721.73721,0,0,1-.42342.0963h-1.886a.69694.69694,0,0,1-.40468-.0963.90418.90418,0,0,1-.23107-.38494l-1.27026-3.48366-1.27025,3.48366a.70521.70521,0,0,1-.23107.38494.69241.69241,0,0,1-.40343.0963h-1.86728Zm15.63778.28865a3.823,3.823,0,0,1-2.90649-1.15472,4.68958,4.68958,0,0,1-1.0779-3.2913,5.36412,5.36412,0,0,1,.73192-2.82929,4.94158,4.94158,0,0,1,2.09712-1.86692,7.01171,7.01171,0,0,1,3.13755-.6736,9.191,9.191,0,0,1,2.57923.32725,7.55474,7.55474,0,0,1,2.07838.90454v7.69873a.6325.6325,0,0,1-.13489.48113.87452.87452,0,0,1-.53833.11553h-1.96347a.74727.74727,0,0,1-.32724-.05783.57537.57537,0,0,1-.19235-.23094l-.24981-.5773a3.25958,3.25958,0,0,1-1.3477.86608A5.39759,5.39759,0,0,1,140.98111,106.48292Zm1.44388-2.61758a1.74047,1.74047,0,0,0,1.17408-.36559,1.29912,1.29912,0,0,0,.42342-1.03944v-3.0024a2.16247,2.16247,0,0,0-.92428-.17324,2.0556,2.0556,0,0,0-1.63622.71207,3.03282,3.03282,0,0,0-.597,2.00169Q140.865,103.86541,142.425,103.86534Zm7.85511,6.21677a1.09612,1.09612,0,0,1-.78938-.23094,1.05989,1.05989,0,0,1-.21107-.73143V98.09135a7.61807,7.61807,0,0,1,2.17455-1.02007,9.21316,9.21316,0,0,1,2.73287-.40419q5.81358,0,5.813,4.92715a5.031,5.031,0,0,1-1.23154,3.56072,4.51685,4.51685,0,0,1-3.48353,1.328,4.92043,4.92043,0,0,1-1.23278-.154,3.01685,3.01685,0,0,1-.96174-.42342v3.21424a1.00183,1.00183,0,0,1-.23107.73143,1.09409,1.09409,0,0,1-.78938.23094H150.2801Zm4.17673-6.19753a1.37009,1.37009,0,0,0,1.23154-.6159,3.00987,3.00987,0,0,0,.42342-1.69367,2.44274,2.44274,0,0,0-.49961-1.75151,1.9563,1.9563,0,0,0-1.50133-.51959,2.56809,2.56809,0,0,0-1.03918.17324v3.06023a1.31356,1.31356,0,0,0,.36472,1.00084,1.42736,1.42736,0,0,0,1.02045.34636Z" transform="translate(-29.85168 -92.81772)"/>
</svg>
